<svg width="129" height="36" viewBox="0 0 129 36" fill="none" xmlns="http://www.w3.org/2000/svg">
<g opacity="0.35">
<path d="M15 20.5C14.9966 21.8199 15.3049 23.1219 15.9 24.3C16.6056 25.7117 17.6903 26.8992 19.0326 27.7293C20.3749 28.5594 21.9218 28.9994 23.5 29C24.8199 29.0034 26.1219 28.6951 27.3 28.1L33 30L31.1 24.3C31.6951 23.1219 32.0034 21.8199 32 20.5C31.9994 18.9218 31.5594 17.3748 30.7293 16.0325C29.8992 14.6902 28.7117 13.6056 27.3 12.9C26.1219 12.3049 24.8199 11.9966 23.5 12H23C20.9157 12.115 18.947 12.9948 17.4709 14.4709C15.9948 15.947 15.115 17.9157 15 20V20.5Z" fill="#C59FF5" stroke="#C59FF5" stroke-width="2" stroke-linecap="round" stroke-linejoin="round"/>
</g>
<path d="M21 14.5C21.0034 15.8199 20.6951 17.1219 20.1 18.3C19.3944 19.7117 18.3097 20.8992 16.9674 21.7293C15.6251 22.5594 14.0782 22.9994 12.5 23C11.1801 23.0034 9.87811 22.6951 8.7 22.1L3 24L4.9 18.3C4.30493 17.1219 3.99656 15.8199 4 14.5C4.00061 12.9218 4.44061 11.3748 5.27072 10.0325C6.10083 8.69025 7.28825 7.60557 8.7 6.9C9.87811 6.30493 11.1801 5.99656 12.5 6H13C15.0843 6.11499 17.053 6.99476 18.5291 8.47086C20.0052 9.94695 20.885 11.9157 21 14V14.5Z" fill="#A56BEE" stroke="#A56BEE" stroke-width="2" stroke-linecap="round" stroke-linejoin="round"/>
<path d="M57.272 22.512H47.912L45.896 27H44.048L51.728 10.2H53.48L61.16 27H59.288L57.272 22.512ZM56.624 21.072L52.592 12.048L48.56 21.072H56.624ZM63.9391 10.2H65.7151V27H63.9391V10.2ZM82.3346 27.12C81.0866 27.12 79.9666 26.848 78.9746 26.304C77.9986 25.76 77.2306 25 76.6706 24.024C76.1106 23.032 75.8306 21.92 75.8306 20.688C75.8306 19.456 76.1106 18.352 76.6706 17.376C77.2306 16.4 77.9986 15.64 78.9746 15.096C79.9666 14.552 81.0866 14.28 82.3346 14.28C83.4226 14.28 84.3906 14.496 85.2386 14.928C86.1026 15.344 86.7826 15.96 87.2786 16.776L86.0066 17.64C85.5906 17.016 85.0626 16.552 84.4226 16.248C83.7826 15.928 83.0866 15.768 82.3346 15.768C81.4226 15.768 80.5986 15.976 79.8626 16.392C79.1426 16.792 78.5746 17.368 78.1586 18.12C77.7586 18.872 77.5586 19.728 77.5586 20.688C77.5586 21.664 77.7586 22.528 78.1586 23.28C78.5746 24.016 79.1426 24.592 79.8626 25.008C80.5986 25.408 81.4226 25.608 82.3346 25.608C83.0866 25.608 83.7826 25.456 84.4226 25.152C85.0626 24.848 85.5906 24.384 86.0066 23.76L87.2786 24.624C86.7826 25.44 86.1026 26.064 85.2386 26.496C84.3746 26.912 83.4066 27.12 82.3346 27.12ZM96.8705 14.28C98.4545 14.28 99.7105 14.744 100.639 15.672C101.583 16.584 102.055 17.92 102.055 19.68V27H100.351V19.848C100.351 18.536 100.023 17.536 99.3665 16.848C98.7105 16.16 97.7745 15.816 96.5585 15.816C95.1985 15.816 94.1185 16.224 93.3185 17.04C92.5345 17.84 92.1425 18.952 92.1425 20.376V27H90.4385V9.192H92.1425V16.584C92.6065 15.848 93.2465 15.28 94.0625 14.88C94.8785 14.48 95.8145 14.28 96.8705 14.28ZM111.097 14.28C112.745 14.28 114.009 14.696 114.889 15.528C115.769 16.344 116.209 17.56 116.209 19.176V27H114.577V25.032C114.193 25.688 113.625 26.2 112.873 26.568C112.137 26.936 111.257 27.12 110.233 27.12C108.825 27.12 107.705 26.784 106.873 26.112C106.041 25.44 105.625 24.552 105.625 23.448C105.625 22.376 106.009 21.512 106.777 20.856C107.561 20.2 108.801 19.872 110.497 19.872H114.505V19.104C114.505 18.016 114.201 17.192 113.593 16.632C112.985 16.056 112.097 15.768 110.929 15.768C110.129 15.768 109.361 15.904 108.625 16.176C107.889 16.432 107.257 16.792 106.729 17.256L105.961 15.984C106.601 15.44 107.369 15.024 108.265 14.736C109.161 14.432 110.105 14.28 111.097 14.28ZM110.497 25.776C111.457 25.776 112.281 25.56 112.969 25.128C113.657 24.68 114.169 24.04 114.505 23.208V21.144H110.545C108.385 21.144 107.305 21.896 107.305 23.4C107.305 24.136 107.585 24.72 108.145 25.152C108.705 25.568 109.489 25.776 110.497 25.776ZM127.485 26.232C127.165 26.52 126.765 26.744 126.285 26.904C125.821 27.048 125.333 27.12 124.821 27.12C123.637 27.12 122.725 26.8 122.085 26.16C121.445 25.52 121.125 24.616 121.125 23.448V15.816H118.869V14.376H121.125V11.616H122.829V14.376H126.669V15.816H122.829V23.352C122.829 24.104 123.013 24.68 123.381 25.08C123.765 25.464 124.309 25.656 125.013 25.656C125.365 25.656 125.701 25.6 126.021 25.488C126.357 25.376 126.645 25.216 126.885 25.008L127.485 26.232Z" fill="#8B3EEB"/>
</svg>
